<?xml version="1.0" standalone="no"?>
<!DOCTYPE svg PUBLIC "-//W3C//DTD SVG 20010904//EN"
 "http://www.w3.org/TR/2001/REC-SVG-20010904/DTD/svg10.dtd">
<svg version="1.0" xmlns="http://www.w3.org/2000/svg"
 width="512.000000pt" height="512.000000pt" viewBox="0 0 512.000000 512.000000"
 preserveAspectRatio="xMidYMid meet">

<g transform="translate(0.000000,512.000000) scale(0.100000,-0.100000)"
fill="#000000" stroke="none">
<path d="M1270 4636 c-383 -55 -729 -222 -996 -478 -202 -195 -270 -343 -268
-588 1 -116 3 -133 38 -239 233 -704 677 -1169 1316 -1376 98 -32 125 -36 180
-32 85 6 253 62 409 137 68 33 124 60 126 60 1 0 5 -33 8 -74 10 -132 119
-419 237 -626 153 -265 349 -486 585 -655 122 -89 353 -203 513 -255 117 -38
140 -42 200 -38 67 5 248 60 325 100 62 31 72 101 20 135 -29 19 -30 19 -213
-46 -63 -22 -131 -40 -150 -41 -50 0 -252 70 -369 129 -110 55 -156 82 -249
148 l-64 45 29 30 c79 84 239 172 390 214 127 37 322 43 453 16 168 -35 329
-112 444 -214 l49 -44 -57 -39 c-32 -22 -62 -47 -67 -57 -27 -50 8 -108 66
-108 74 0 348 247 501 453 179 239 351 609 385 827 28 184 -24 398 -135 549
-44 59 -193 203 -273 264 -479 364 -1127 466 -1707 268 -50 -17 -91 -31 -92
-31 -2 0 8 24 21 54 13 30 43 110 66 178 38 111 43 135 47 241 9 249 -61 416
-257 607 -252 246 -570 406 -943 476 -115 22 -444 27 -568 10z m573 -165 c350
-71 635 -225 867 -467 92 -96 136 -172 164 -280 17 -64 22 -220 8 -241 -6 -9
-23 2 -58 38 -191 197 -509 373 -817 453 -223 58 -523 75 -752 41 -384 -56
-745 -226 -1011 -478 l-82 -78 -7 66 c-14 128 23 274 99 388 41 61 159 178
251 248 232 176 504 285 815 329 106 15 410 4 523 -19z m-64 -607 c351 -51
667 -200 923 -434 43 -39 90 -86 104 -105 l25 -33 -32 -79 c-18 -43 -34 -80
-35 -82 -2 -2 -22 16 -43 41 -58 65 -193 177 -291 241 -329 213 -727 303
-1112 252 -165 -22 -269 -49 -290 -75 -24 -29 -23 -61 3 -94 25 -32 49 -33
160 -6 468 111 1003 -29 1348 -355 77 -73 141 -148 141 -165 0 -4 -33 -29 -72
-55 -40 -26 -89 -60 -109 -76 l-35 -28 -59 51 c-169 144 -384 247 -630 300
-95 20 -420 17 -525 -5 -255 -55 -482 -172 -657 -340 l-82 -79 -31 44 c-70 96
-112 176 -104 200 13 43 204 221 314 293 138 90 150 101 150 141 0 37 -38 74
-75 74 -27 0 -176 -93 -270 -168 -38 -31 -102 -89 -141 -129 l-71 -73 -32 79
c-17 44 -31 85 -31 92 0 19 169 180 265 251 219 165 493 278 780 322 125 19
383 20 514 0z m2006 -824 c385 -45 764 -228 1006 -487 128 -136 194 -318 175
-476 l-7 -57 -67 61 c-257 237 -578 399 -927 470 -154 31 -463 38 -625 15
-383 -56 -704 -202 -992 -453 -54 -47 -98 -90 -98 -97 0 -6 -5 -4 -10 4 -15
24 -12 186 6 254 31 122 69 182 194 307 265 266 587 414 1005 463 68 7 256 5
340 -4z m-2068 -25 c105 -17 223 -53 321 -96 76 -34 245 -144 281 -182 l23
-26 -57 -64 -58 -65 -66 46 c-93 64 -234 129 -348 160 -90 24 -113 26 -293 26
-169 0 -205 -3 -272 -21 -180 -51 -339 -133 -451 -234 -36 -33 -70 -59 -75
-59 -6 0 -33 25 -61 56 -60 66 -61 65 36 154 169 155 390 265 603 300 41 6 82
13 90 15 46 9 248 3 327 -10z m58 -375 c44 -12 117 -39 162 -60 80 -37 203
-116 203 -130 0 -3 -10 -34 -21 -69 -19 -57 -27 -66 -77 -98 -132 -85 -445
-213 -520 -213 -15 0 -63 12 -106 26 -195 63 -334 131 -490 237 l-89 61 53 47
c113 100 305 191 460 218 95 17 333 6 425 -19z m2072 -225 c365 -52 690 -208
946 -455 l112 -108 -17 -49 c-10 -28 -25 -67 -33 -87 l-16 -37 -103 99 c-238
227 -533 373 -861 427 -521 86 -1056 -79 -1423 -441 l-93 -91 -15 36 c-9 20
-25 58 -36 86 l-19 49 109 107 c173 168 393 304 622 384 94 32 290 78 380 88
90 10 354 5 447 -8z m-107 -345 c332 -35 612 -154 852 -364 46 -40 102 -98
126 -128 l43 -56 -51 -84 c-29 -46 -63 -98 -77 -116 l-25 -33 -84 80 c-175
166 -382 274 -634 333 -122 28 -374 35 -500 14 -283 -46 -538 -172 -740 -364
l-64 -62 -23 28 c-12 15 -44 65 -72 111 l-50 84 17 30 c9 16 54 66 99 111 301
300 755 460 1183 416z m110 -515 c231 -51 436 -160 593 -317 l69 -68 -53 -60
c-30 -33 -57 -60 -62 -60 -5 0 -33 22 -62 48 -190 174 -455 272 -735 272 -286
0 -529 -89 -743 -273 l-58 -50 -55 54 c-30 29 -54 58 -54 65 0 6 35 45 78 86
181 173 395 276 661 318 82 13 334 4 421 -15z"/>
</g>
</svg>
